<mxfile host="app.diagrams.net" agent="Mozilla/5.0 (Macintosh; Intel Mac OS X 10.15; rv:135.0) Gecko/20100101 Firefox/135.0" border="50" scale="3" compressed="false" locked="false" version="26.0.16">
  <diagram name="Blank" id="YmL12bMKpDGza6XwsDPr">
    <mxGraphModel dx="787" dy="629" grid="0" gridSize="10" guides="1" tooltips="1" connect="1" arrows="1" fold="1" page="0" pageScale="1" pageWidth="827" pageHeight="1169" background="none" math="1" shadow="0">
      <root>
        <mxCell id="X5NqExCQtvZxIxQ7pmgY-0" />
        <mxCell id="1" parent="X5NqExCQtvZxIxQ7pmgY-0" />
      </root>
    </mxGraphModel>
  </diagram>
</mxfile>
